FrauncesItalic-BlackOpMin.ufo
<glyph name="exclam" format="2">
  <advance width="562"/>
  <unicode hex="0021"/>
  <outline>
    <contour>
      <point x="644.0" y="1418.0" type="curve" smooth="yes"/>
      <point x="768.0" y="1418.0"/>
      <point x="868.0" y="1304.0"/>
      <point x="868.0" y="1168.0" type="curve" smooth="yes"/>
      <point x="868.0" y="1144.0"/>
      <point x="874.0" y="1126.0"/>
      <point x="846.0" y="1078.0" type="curve" smooth="yes"/>
      <point x="556.0" y="570.0" type="line" smooth="yes"/>
      <point x="504.0" y="462.0"/>
      <point x="456.0" y="434.0"/>
      <point x="392.0" y="434.0" type="curve" smooth="yes"/>
      <point x="330.0" y="434.0"/>
      <point x="294.0" y="492.0"/>
      <point x="304.0" y="580.0" type="curve" smooth="yes"/>
      <point x="332.0" y="1126.0" type="line" smooth="yes"/>
      <point x="336.0" y="1152.0"/>
      <point x="340.0" y="1170.0"/>
      <point x="346.0" y="1188.0" type="curve" smooth="yes"/>
      <point x="388.0" y="1316.0"/>
      <point x="510.0" y="1418.0"/>
    </contour>
    <contour>
      <point x="277.498" y="-29.99" type="curve" smooth="yes"/>
      <point x="456.63399999999996" y="-29.99"/>
      <point x="576.058" y="72.64"/>
      <point x="576.058" y="193.92999999999998" type="curve" smooth="yes"/>
      <point x="576.058" y="304.024"/>
      <point x="488.356" y="380.53"/>
      <point x="354.00399999999996" y="380.53" type="curve" smooth="yes"/>
      <point x="173.00199999999998" y="380.53"/>
      <point x="53.577999999999996" y="259.24"/>
      <point x="53.577999999999996" y="160.34199999999998" type="curve" smooth="yes"/>
      <point x="53.577999999999996" y="50.248"/>
      <point x="145.012" y="-29.99"/>
    </contour>
  </outline>
</glyph>
<glyph name="comma" format="2">
  <advance width="710"/>
  <unicode hex="002C"/>
  <outline>
    <contour>
      <point x="170" y="26" type="curve" smooth="yes"/>
      <point x="238" y="-6"/>
      <point x="256" y="-26"/>
      <point x="256" y="-74" type="curve" smooth="yes"/>
      <point x="256" y="-122"/>
      <point x="198" y="-171"/>
      <point x="54" y="-228" type="curve" smooth="yes"/>
      <point x="-24" y="-259"/>
      <point x="-63" y="-330"/>
      <point x="-9" y="-390" type="curve" smooth="yes"/>
      <point x="32" y="-436"/>
      <point x="123.0" y="-430.0"/>
      <point x="200" y="-396" type="curve" smooth="yes"/>
      <point x="459" y="-282"/>
      <point x="606" y="-104"/>
      <point x="606" y="166" type="curve" smooth="yes"/>
      <point x="606" y="312"/>
      <point x="524" y="430"/>
      <point x="378" y="430" type="curve" smooth="yes"/>
      <point x="200" y="430"/>
      <point x="76" y="300"/>
      <point x="76" y="168" type="curve" smooth="yes"/>
      <point x="76" y="88"/>
      <point x="118" y="48"/>
    </contour>
  </outline>
</glyph>
<glyph name="nine" format="2">
  <advance width="1356"/>
  <unicode hex="0039"/>
  <outline>
    <contour>
      <point x="688.0" y="-28.0" type="curve" smooth="yes"/>
      <point x="1156.0" y="-28.0"/>
      <point x="1486.0" y="338.0"/>
      <point x="1486.0" y="864.0" type="curve" smooth="yes"/>
      <point x="1486.0" y="1156.0"/>
      <point x="1334.0" y="1342.0"/>
      <point x="966.0" y="1342.0" type="curve" smooth="yes"/>
      <point x="550.0" y="1342.0"/>
      <point x="300.0" y="1098.0"/>
      <point x="300.0" y="808.0" type="curve" smooth="yes"/>
      <point x="300.0" y="610.0"/>
      <point x="454.0" y="468.0"/>
      <point x="700.0" y="468.0" type="curve" smooth="yes"/>
      <point x="960.0" y="468.0"/>
      <point x="1160.0" y="634.0"/>
      <point x="1212.0" y="834.0" type="curve"/>
      <point x="1090.0" y="860.0" type="line"/>
      <point x="1068.0" y="766.0"/>
      <point x="978.0" y="700.0"/>
      <point x="896.0" y="700.0" type="curve" smooth="yes"/>
      <point x="786.0" y="700.0"/>
      <point x="716.0" y="752.0"/>
      <point x="716.0" y="858.0" type="curve" smooth="yes"/>
      <point x="716.0" y="1054.0"/>
      <point x="788.0" y="1150.0"/>
      <point x="918.0" y="1150.0" type="curve" smooth="yes"/>
      <point x="1010.0" y="1150.0"/>
      <point x="1076.0" y="1094.0"/>
      <point x="1076.0" y="1024.0" type="curve" smooth="yes"/>
      <point x="1076.0" y="456.0"/>
      <point x="882.0" y="178.0"/>
      <point x="702.0" y="178.0" type="curve" smooth="yes"/>
      <point x="648.0" y="178.0"/>
      <point x="600.0" y="220.0"/>
      <point x="602.0" y="274.0" type="curve" smooth="yes"/>
      <point x="602.0" y="300.0"/>
      <point x="600.0" y="312.0"/>
      <point x="600.0" y="340.0" type="curve" smooth="yes"/>
      <point x="602.0" y="474.0"/>
      <point x="508.0" y="558.0"/>
      <point x="372.0" y="558.0" type="curve" smooth="yes"/>
      <point x="248.0" y="558.0"/>
      <point x="152.0" y="444.0"/>
      <point x="152.0" y="310.0" type="curve" smooth="yes"/>
      <point x="152.0" y="118.0"/>
      <point x="306.0" y="-28.0"/>
    </contour>
  </outline>
</glyph>
<glyph name="C" format="2">
  <advance width="1356"/>
  <unicode hex="0043"/>
  <outline>
    <contour>
      <point x="1345" y="418.0"/>
      <point x="1320" y="476.0"/>
      <point x="1263" y="491.0" type="curve" smooth="yes"/>
      <point x="1208" y="507.0"/>
      <point x="1140" y="482.0"/>
      <point x="1084" y="403.0" type="curve" smooth="yes"/>
      <point x="1009" y="305.0"/>
      <point x="929" y="254.0"/>
      <point x="838" y="254.0" type="curve" smooth="yes"/>
      <point x="687" y="254.0"/>
      <point x="563" y="410.0"/>
      <point x="638" y="751.0" type="curve" smooth="yes"/>
      <point x="702" y="1040.0"/>
      <point x="839" y="1206.0"/>
      <point x="992" y="1206.0" type="curve" smooth="yes"/>
      <point x="1105" y="1206.0"/>
      <point x="1167" y="1178.0"/>
      <point x="1203" y="1068.0" type="curve" smooth="yes"/>
      <point x="1232" y="984.0" type="line" smooth="yes"/>
      <point x="1258" y="903.0"/>
      <point x="1303" y="860.0"/>
      <point x="1372" y="860.0" type="curve" smooth="yes"/>
      <point x="1432" y="860.0"/>
      <point x="1475" y="912.0"/>
      <point x="1480" y="1034.0" type="curve" smooth="yes"/>
      <point x="1490" y="1262.0" type="line" smooth="yes"/>
      <point x="1494.7859585708054" y="1371.119855414363"/>
      <point x="1448" y="1435.0"/>
      <point x="1389" y="1435.0" type="curve" smooth="yes"/>
      <point x="1321" y="1435.0"/>
      <point x="1283.6794871794873" y="1368.0"/>
      <point x="1234" y="1368.0" type="curve" smooth="yes"/>
      <point x="1193" y="1368.0"/>
      <point x="1125" y="1430.0"/>
      <point x="955" y="1430.0" type="curve" smooth="yes"/>
      <point x="519" y="1430.0"/>
      <point x="178" y="1161.0"/>
      <point x="95" y="700.0" type="curve" smooth="yes"/>
      <point x="4" y="196.0"/>
      <point x="256" y="-30.0"/>
      <point x="640" y="-30.0" type="curve" smooth="yes"/>
      <point x="941" y="-30.0"/>
      <point x="1190" y="89.0"/>
      <point x="1282" y="282.0" type="curve" smooth="yes"/>
    </contour>
  </outline>
</glyph>
<glyph name="F" format="2">
  <advance width="1308"/>
  <unicode hex="0046"/>
  <outline>
    <contour>
      <point x="226.0" y="1300.0" type="curve" smooth="yes"/>
      <point x="222.0" y="1236.0"/>
      <point x="248.0" y="1200.0"/>
      <point x="300.0" y="1190.0" type="curve" smooth="yes"/>
      <point x="320.0" y="1186.0" type="line" smooth="yes"/>
      <point x="360.0" y="1178.0"/>
      <point x="384.0" y="1136.0"/>
      <point x="370.0" y="1070.0" type="curve" smooth="yes"/>
      <point x="328.0" y="862.0"/>
      <point x="246.0" y="540.0"/>
      <point x="184.0" y="318.0" type="curve" smooth="yes"/>
      <point x="166.0" y="252.0"/>
      <point x="140.0" y="226.0"/>
      <point x="88.0" y="214.0" type="curve" smooth="yes"/>
      <point x="54.0" y="206.0" type="line" smooth="yes"/>
      <point x="-10.0" y="192.0"/>
      <point x="-40.0" y="154.0"/>
      <point x="-44.0" y="104.0" type="curve" smooth="yes"/>
      <point x="-48.0" y="40.0"/>
      <point x="-12.0" y="0.0"/>
      <point x="50.0" y="0.0" type="curve" smooth="yes"/>
      <point x="718.0" y="0.0" type="line" smooth="yes"/>
      <point x="808.0" y="0.0"/>
      <point x="832.0" y="48.0"/>
      <point x="832.0" y="104.0" type="curve" smooth="yes"/>
      <point x="832.0" y="148.0"/>
      <point x="816.0" y="178.0"/>
      <point x="752.0" y="196.0" type="curve" smooth="yes"/>
      <point x="710.0" y="208.0" type="line" smooth="yes"/>
      <point x="662.0" y="222.0"/>
      <point x="624.0" y="252.0"/>
      <point x="638.0" y="330.0" type="curve" smooth="yes"/>
      <point x="682.0" y="572.0"/>
      <point x="766.0" y="916.0"/>
      <point x="858.0" y="1232.0" type="curve"/>
      <point x="966.0" y="1232.0" type="line" smooth="yes"/>
      <point x="1064.0" y="1232.0"/>
      <point x="1110.0" y="1198.0"/>
      <point x="1146.0" y="1108.0" type="curve" smooth="yes"/>
      <point x="1164.0" y="1062.0" type="line" smooth="yes"/>
      <point x="1204.0" y="960.0"/>
      <point x="1254.0" y="920.0"/>
      <point x="1332.0" y="920.0" type="curve" smooth="yes"/>
      <point x="1394.0" y="920.0"/>
      <point x="1444.0" y="974.0"/>
      <point x="1436.0" y="1080.0" type="curve" smooth="yes"/>
      <point x="1414.0" y="1346.0" type="line" smooth="yes"/>
      <point x="1408.0" y="1416.0"/>
      <point x="1374.0" y="1444.0"/>
      <point x="1318.0" y="1444.0" type="curve" smooth="yes"/>
      <point x="1258.0" y="1444.0"/>
      <point x="1204.0" y="1400.0"/>
      <point x="1118.0" y="1400.0" type="curve" smooth="yes"/>
      <point x="338.0" y="1400.0" type="line" smooth="yes"/>
      <point x="270.0" y="1400.0"/>
      <point x="230.0" y="1366.0"/>
    </contour>
    <contour>
      <point x="564.0" y="778.0" type="line"/>
      <point x="518.0" y="590.0" type="line"/>
      <point x="844.0" y="590.0" type="line" smooth="yes"/>
      <point x="924.0" y="590.0"/>
      <point x="950.0" y="564.0"/>
      <point x="990.0" y="514.0" type="curve" smooth="yes"/>
      <point x="1040.0" y="456.0"/>
      <point x="1070.0" y="436.0"/>
      <point x="1124.0" y="436.0" type="curve" smooth="yes"/>
      <point x="1172.0" y="436.0"/>
      <point x="1202.0" y="476.0"/>
      <point x="1192.0" y="548.0" type="curve" smooth="yes"/>
      <point x="1158.0" y="808.0" type="line" smooth="yes"/>
      <point x="1150.0" y="876.0"/>
      <point x="1116.0" y="918.0"/>
      <point x="1070.0" y="918.0" type="curve" smooth="yes"/>
      <point x="1036.0" y="918.0"/>
      <point x="1006.0" y="904.0"/>
      <point x="976.0" y="864.0" type="curve" smooth="yes"/>
      <point x="928.0" y="798.0"/>
      <point x="866.0" y="778.0"/>
      <point x="792.0" y="778.0" type="curve" smooth="yes"/>
    </contour>
  </outline>
</glyph>
<glyph name="G" format="2">
  <advance width="1526"/>
  <unicode hex="0047"/>
  <anchor x="1086.0" y="1566.0" name="center"/>
  <outline>
    <contour>
      <point x="914" y="1428" type="curve" smooth="yes"/>
      <point x="498" y="1428"/>
      <point x="152" y="1097"/>
      <point x="88" y="643" type="curve" smooth="yes"/>
      <point x="29" y="225"/>
      <point x="238" y="-30"/>
      <point x="606" y="-30" type="curve" smooth="yes"/>
      <point x="804" y="-30"/>
      <point x="876" y="48"/>
      <point x="938" y="48" type="curve" smooth="yes"/>
      <point x="1012" y="48"/>
      <point x="1038" y="-30"/>
      <point x="1118" y="-30" type="curve" smooth="yes"/>
      <point x="1200" y="-30"/>
      <point x="1276" y="34"/>
      <point x="1298" y="118" type="curve" smooth="yes"/>
      <point x="1362" y="372" type="line" smooth="yes"/>
      <point x="1383.0887474902188" y="455.6959666018062"/>
      <point x="1407" y="493"/>
      <point x="1454" y="524" type="curve" smooth="yes"/>
      <point x="1487" y="546" type="line" smooth="yes"/>
      <point x="1535" y="578"/>
      <point x="1557" y="612"/>
      <point x="1559" y="660" type="curve" smooth="yes"/>
      <point x="1565" y="722"/>
      <point x="1535.0" y="754.0"/>
      <point x="1439" y="754" type="curve" smooth="yes"/>
      <point x="892" y="754" type="line" smooth="yes"/>
      <point x="830" y="754"/>
      <point x="792" y="722"/>
      <point x="792" y="658" type="curve" smooth="yes"/>
      <point x="792" y="608"/>
      <point x="806" y="580"/>
      <point x="874" y="558" type="curve" smooth="yes"/>
      <point x="916" y="546" type="line" smooth="yes"/>
      <point x="962" y="530"/>
      <point x="996" y="492"/>
      <point x="988" y="440" type="curve" smooth="yes"/>
      <point x="960" y="348" type="line" smooth="yes"/>
      <point x="931" y="252"/>
      <point x="857" y="206"/>
      <point x="748" y="206" type="curve" smooth="yes"/>
      <point x="622" y="206"/>
      <point x="535" y="315"/>
      <point x="585" y="614" type="curve" smooth="yes"/>
      <point x="644" y="963"/>
      <point x="819" y="1174"/>
      <point x="1014" y="1174" type="curve" smooth="yes"/>
      <point x="1122" y="1174"/>
      <point x="1170" y="1143"/>
      <point x="1203" y="1064" type="curve" smooth="yes"/>
      <point x="1224" y="1014" type="line" smooth="yes"/>
      <point x="1258" y="934"/>
      <point x="1310" y="876"/>
      <point x="1384" y="876" type="curve" smooth="yes"/>
      <point x="1460" y="876"/>
      <point x="1523" y="924"/>
      <point x="1518" y="1010" type="curve" smooth="yes"/>
      <point x="1500" y="1304" type="line" smooth="yes"/>
      <point x="1495" y="1391"/>
      <point x="1450" y="1436"/>
      <point x="1386" y="1436" type="curve" smooth="yes"/>
      <point x="1310" y="1436"/>
      <point x="1284" y="1371"/>
      <point x="1222" y="1371" type="curve" smooth="yes"/>
      <point x="1180" y="1371"/>
      <point x="1116" y="1428"/>
    </contour>
  </outline>
</glyph>
<glyph name="H" format="2">
  <advance width="1750"/>
  <unicode hex="0048"/>
  <outline>
    <contour>
      <point x="616.0" y="780.0" type="line"/>
      <point x="532.0" y="564.0" type="line"/>
      <point x="1298.0" y="564.0" type="line"/>
      <point x="1382.0" y="780.0" type="line"/>
    </contour>
    <contour>
      <point x="638.0" y="278.0" type="curve" smooth="yes"/>
      <point x="646.0" y="326.0"/>
      <point x="780" y="886"/>
      <point x="852.0" y="1100.0" type="curve" smooth="yes"/>
      <point x="870" y="1154"/>
      <point x="895" y="1176"/>
      <point x="918.0" y="1184.0" type="curve" smooth="yes"/>
      <point x="946.0" y="1194.0" type="line" smooth="yes"/>
      <point x="1000" y="1213"/>
      <point x="1038.0" y="1246.0"/>
      <point x="1038.0" y="1304.0" type="curve" smooth="yes"/>
      <point x="1038.0" y="1360.0"/>
      <point x="1006" y="1400"/>
      <point x="934.0" y="1400.0" type="curve" smooth="yes"/>
      <point x="348.0" y="1400.0" type="line" smooth="yes"/>
      <point x="288.0" y="1400.0"/>
      <point x="250.0" y="1348.0"/>
      <point x="250.0" y="1286.0" type="curve" smooth="yes"/>
      <point x="250.0" y="1234.0"/>
      <point x="270.0" y="1204.0"/>
      <point x="324.0" y="1192.0" type="curve" smooth="yes"/>
      <point x="342.0" y="1188.0" type="line" smooth="yes"/>
      <point x="378.0" y="1182.0"/>
      <point x="393" y="1158"/>
      <point x="386.0" y="1124.0" type="curve" smooth="yes"/>
      <point x="347" y="922"/>
      <point x="239" y="511"/>
      <point x="178.0" y="306.0" type="curve" smooth="yes"/>
      <point x="162" y="252"/>
      <point x="137" y="235"/>
      <point x="96.0" y="220.0" type="curve" smooth="yes"/>
      <point x="74.0" y="212.0" type="line" smooth="yes"/>
      <point x="26" y="194"/>
      <point x="-10.0" y="156.0"/>
      <point x="-10.0" y="98.0" type="curve" smooth="yes"/>
      <point x="-10.0" y="42.0"/>
      <point x="26.0" y="0"/>
      <point x="88.0" y="0.0" type="curve" smooth="yes"/>
      <point x="651.0" y="0.0" type="line" smooth="yes"/>
      <point x="737" y="0"/>
      <point x="781.0" y="44.0"/>
      <point x="781.0" y="112.0" type="curve" smooth="yes"/>
      <point x="781.0" y="162.0"/>
      <point x="749" y="191"/>
      <point x="711.0" y="212.0" type="curve" smooth="yes"/>
      <point x="678.0" y="230.0" type="line" smooth="yes"/>
      <point x="655" y="242"/>
      <point x="634.0" y="256.0"/>
    </contour>
    <contour>
      <point x="1492" y="293" type="curve" smooth="yes"/>
      <point x="1528" y="484"/>
      <point x="1645" y="914"/>
      <point x="1704.0" y="1100.0" type="curve" smooth="yes"/>
      <point x="1721" y="1154"/>
      <point x="1746.0" y="1178.0"/>
      <point x="1770.0" y="1184.0" type="curve" smooth="yes"/>
      <point x="1808.0" y="1194.0" type="line" smooth="yes"/>
      <point x="1864.0" y="1206.0"/>
      <point x="1890.0" y="1246.0"/>
      <point x="1890.0" y="1304.0" type="curve" smooth="yes"/>
      <point x="1890.0" y="1360.0"/>
      <point x="1858" y="1400"/>
      <point x="1786.0" y="1400.0" type="curve" smooth="yes"/>
      <point x="1200.0" y="1400.0" type="line" smooth="yes"/>
      <point x="1140.0" y="1400.0"/>
      <point x="1102.0" y="1348.0"/>
      <point x="1102.0" y="1286.0" type="curve" smooth="yes"/>
      <point x="1102.0" y="1234.0"/>
      <point x="1122.0" y="1204.0"/>
      <point x="1176.0" y="1192.0" type="curve" smooth="yes"/>
      <point x="1194.0" y="1188.0" type="line" smooth="yes"/>
      <point x="1230.0" y="1182.0"/>
      <point x="1245" y="1158"/>
      <point x="1238.0" y="1124.0" type="curve" smooth="yes"/>
      <point x="1201" y="954"/>
      <point x="1108.0" y="571.0"/>
      <point x="1030.0" y="306.0" type="curve" smooth="yes"/>
      <point x="1014" y="252"/>
      <point x="990.0" y="230.0"/>
      <point x="948.0" y="220.0" type="curve" smooth="yes"/>
      <point x="916.0" y="212.0" type="line" smooth="yes"/>
      <point x="866.0" y="200.0"/>
      <point x="842.0" y="156.0"/>
      <point x="842.0" y="98.0" type="curve" smooth="yes"/>
      <point x="842.0" y="42.0"/>
      <point x="868" y="0"/>
      <point x="930.0" y="0.0" type="curve" smooth="yes"/>
      <point x="1504.0" y="0.0" type="line" smooth="yes"/>
      <point x="1590.0" y="0.0"/>
      <point x="1634.0" y="44.0"/>
      <point x="1634.0" y="112.0" type="curve" smooth="yes"/>
      <point x="1634.0" y="162.0"/>
      <point x="1602" y="192"/>
      <point x="1564.0" y="212.0" type="curve" smooth="yes"/>
      <point x="1530.0" y="230.0" type="line" smooth="yes"/>
      <point x="1507" y="242"/>
      <point x="1485" y="256"/>
    </contour>
  </outline>
</glyph>
<glyph name="O" format="2">
  <advance width="1630"/>
  <unicode hex="004F"/>
  <anchor x="1004" y="1546.0" name="center"/>
  <outline>
    <contour>
      <point x="1069" y="1432" type="curve" smooth="yes"/>
      <point x="554" y="1460"/>
      <point x="212" y="1182"/>
      <point x="111" y="728" type="curve" smooth="yes"/>
      <point x="12" y="282"/>
      <point x="221" y="-9"/>
      <point x="652" y="-30" type="curve" smooth="yes"/>
      <point x="1100" y="-51"/>
      <point x="1500" y="170"/>
      <point x="1627" y="708" type="curve" smooth="yes"/>
      <point x="1726" y="1129"/>
      <point x="1549" y="1406"/>
    </contour>
    <contour>
      <point x="724" y="187" type="curve" smooth="yes"/>
      <point x="619" y="201"/>
      <point x="571" y="285"/>
      <point x="676" y="716" type="curve" smooth="yes"/>
      <point x="773" y="1112"/>
      <point x="893" y="1230"/>
      <point x="1016" y="1214" type="curve" smooth="yes"/>
      <point x="1122" y="1200"/>
      <point x="1155" y="1093"/>
      <point x="1062" y="720" type="curve" smooth="yes"/>
      <point x="949" y="267"/>
      <point x="831" y="172"/>
    </contour>
  </outline>
</glyph>
<glyph name="Q" format="2">
  <advance width="1610"/>
  <unicode hex="0051"/>
  <outline>
    <contour>
      <point x="695" y="258" type="curve" smooth="yes"/>
      <point x="638" y="-182"/>
      <point x="891" y="-404"/>
      <point x="1126.0" y="-404.0" type="curve" smooth="yes"/>
      <point x="1255" y="-404.0"/>
      <point x="1343" y="-356"/>
      <point x="1372" y="-290" type="curve" smooth="yes"/>
      <point x="1463" y="-84" type="line" smooth="yes"/>
      <point x="1478.888082108058" y="-48.033572370770216"/>
      <point x="1477" y="-6"/>
      <point x="1455" y="0" type="curve" smooth="yes"/>
      <point x="1386" y="19"/>
      <point x="1353.0" y="-64.0"/>
      <point x="1243" y="-64" type="curve" smooth="yes"/>
      <point x="1062" y="-64"/>
      <point x="919" y="59"/>
      <point x="946.0" y="292" type="curve" smooth="yes"/>
      <point x="963" y="441.0"/>
      <point x="922.0" y="480.0"/>
      <point x="856.0" y="480.0" type="curve" smooth="yes"/>
      <point x="774" y="480"/>
      <point x="716" y="421"/>
    </contour>
    <contour>
      <point x="1072.0" y="1432.0" type="curve" smooth="yes"/>
      <point x="582.0" y="1432.0"/>
      <point x="206.0" y="1116.0"/>
      <point x="104.0" y="652.0" type="curve" smooth="yes"/>
      <point x="8.0" y="212.0"/>
      <point x="200.0" y="-30.0"/>
      <point x="618.0" y="-30.0" type="curve" smooth="yes"/>
      <point x="1052.0" y="-30.0"/>
      <point x="1484.0" y="238.0"/>
      <point x="1612.0" y="776.0" type="curve" smooth="yes"/>
      <point x="1706.0" y="1178.0"/>
      <point x="1464.0" y="1432.0"/>
    </contour>
    <contour>
      <point x="708.0" y="188.0" type="curve" smooth="yes"/>
      <point x="630.0" y="188.0"/>
      <point x="582.0" y="292.0"/>
      <point x="686.0" y="716.0" type="curve" smooth="yes"/>
      <point x="772.0" y="1070.0"/>
      <point x="890.0" y="1214.0"/>
      <point x="1006.0" y="1214.0" type="curve" smooth="yes"/>
      <point x="1096.0" y="1214.0"/>
      <point x="1124" y="1086"/>
      <point x="1032.0" y="720.0" type="curve" smooth="yes"/>
      <point x="922.0" y="280.0"/>
      <point x="820.0" y="188.0"/>
    </contour>
  </outline>
</glyph>
<glyph name="R" format="2">
  <advance width="1586"/>
  <unicode hex="0052"/>
  <outline>
    <contour>
      <point x="488" y="588" type="line"/>
      <point x="592" y="528"/>
      <point x="744" y="490"/>
      <point x="912" y="494" type="curve" smooth="yes"/>
      <point x="1283" y="502"/>
      <point x="1519" y="634"/>
      <point x="1564" y="885" type="curve" smooth="yes"/>
      <point x="1620" y="1203"/>
      <point x="1399" y="1400"/>
      <point x="968" y="1400" type="curve" smooth="yes"/>
      <point x="358" y="1400" type="line" smooth="yes"/>
      <point x="289" y="1400"/>
      <point x="250" y="1361"/>
      <point x="250" y="1292" type="curve" smooth="yes"/>
      <point x="250" y="1242"/>
      <point x="277" y="1211"/>
      <point x="322" y="1195" type="curve" smooth="yes"/>
      <point x="351" y="1185" type="line" smooth="yes"/>
      <point x="378" y="1176"/>
      <point x="389" y="1151"/>
      <point x="379" y="1096" type="curve" smooth="yes"/>
      <point x="353" y="943"/>
      <point x="207" y="415"/>
      <point x="170" y="300" type="curve" smooth="yes"/>
      <point x="157" y="258"/>
      <point x="142" y="235"/>
      <point x="112" y="226" type="curve" smooth="yes"/>
      <point x="66" y="212" type="line" smooth="yes"/>
      <point x="18" y="198"/>
      <point x="-8" y="164"/>
      <point x="-8" y="96" type="curve" smooth="yes"/>
      <point x="-8" y="36"/>
      <point x="32" y="0"/>
      <point x="92" y="0" type="curve" smooth="yes"/>
      <point x="670" y="0" type="line" smooth="yes"/>
      <point x="734" y="0"/>
      <point x="780" y="40"/>
      <point x="780" y="107" type="curve" smooth="yes"/>
      <point x="780" y="167"/>
      <point x="753" y="202"/>
      <point x="704" y="218" type="curve" smooth="yes"/>
      <point x="698" y="220" type="line" smooth="yes"/>
      <point x="649" y="236"/>
      <point x="634" y="276"/>
      <point x="649" y="344" type="curve" smooth="yes"/>
      <point x="685" y="509"/>
      <point x="786" y="916"/>
      <point x="828" y="1058" type="curve" smooth="yes"/>
      <point x="850" y="1130"/>
      <point x="895" y="1182"/>
      <point x="974" y="1182" type="curve" smooth="yes"/>
      <point x="1054" y="1182"/>
      <point x="1122" y="1107"/>
      <point x="1099" y="920" type="curve" smooth="yes"/>
      <point x="1079" y="752"/>
      <point x="980" y="678"/>
      <point x="850" y="678" type="curve" smooth="yes"/>
      <point x="748" y="678"/>
      <point x="672" y="716"/>
      <point x="618" y="756" type="curve"/>
    </contour>
    <contour>
      <point x="804" y="514" type="line"/>
      <point x="872" y="286" type="line" smooth="yes"/>
      <point x="936" y="70"/>
      <point x="1050" y="-24"/>
      <point x="1184" y="-24" type="curve" smooth="yes"/>
      <point x="1382" y="-24"/>
      <point x="1568" y="114"/>
      <point x="1568" y="336" type="curve" smooth="yes"/>
      <point x="1568" y="396"/>
      <point x="1536" y="440"/>
      <point x="1488" y="440" type="curve" smooth="yes"/>
      <point x="1470" y="440"/>
      <point x="1454" y="434"/>
      <point x="1436" y="426" type="curve" smooth="yes"/>
      <point x="1406" y="412"/>
      <point x="1376" y="394"/>
      <point x="1336" y="394" type="curve" smooth="yes"/>
      <point x="1300" y="394"/>
      <point x="1254" y="424"/>
      <point x="1236" y="486" type="curve" smooth="yes"/>
      <point x="1206" y="592" type="line"/>
    </contour>
  </outline>
</glyph>
<glyph name="X" format="2">
  <advance width="1636"/>
  <unicode hex="0058"/>
  <outline>
    <contour>
      <point x="656" y="790" type="line"/>
      <point x="312" y="406" type="line" smooth="yes"/>
      <point x="233" y="317"/>
      <point x="167.88834903804423" y="267.53613789157305"/>
      <point x="83" y="234" type="curve" smooth="yes"/>
      <point x="14" y="206"/>
      <point x="-22" y="171"/>
      <point x="-22" y="112" type="curve" smooth="yes"/>
      <point x="-22" y="42"/>
      <point x="16" y="0"/>
      <point x="102" y="0" type="curve" smooth="yes"/>
      <point x="478" y="0" type="line" smooth="yes"/>
      <point x="541" y="0"/>
      <point x="591" y="44"/>
      <point x="591" y="106" type="curve" smooth="yes"/>
      <point x="591" y="156"/>
      <point x="569" y="186"/>
      <point x="541" y="207" type="curve" smooth="yes"/>
      <point x="526" y="218" type="line" smooth="yes"/>
      <point x="466" y="262"/>
      <point x="487" y="318"/>
      <point x="551" y="395" type="curve" smooth="yes"/>
      <point x="760" y="646" type="line"/>
    </contour>
    <contour>
      <point x="980" y="1100" type="curve" smooth="yes"/>
      <point x="965" y="1143"/>
      <point x="993" y="1171"/>
      <point x="1020" y="1186" type="curve" smooth="yes"/>
      <point x="1042" y="1198" type="line" smooth="yes"/>
      <point x="1094" y="1226"/>
      <point x="1132" y="1248"/>
      <point x="1132" y="1306" type="curve" smooth="yes"/>
      <point x="1132" y="1366"/>
      <point x="1102.0" y="1400.0"/>
      <point x="1046" y="1400" type="curve" smooth="yes"/>
      <point x="420" y="1400" type="line" smooth="yes"/>
      <point x="346" y="1400"/>
      <point x="296.0" y="1362.0"/>
      <point x="296" y="1306" type="curve" smooth="yes"/>
      <point x="296" y="1260"/>
      <point x="314" y="1223"/>
      <point x="365" y="1201" type="curve" smooth="yes"/>
      <point x="423" y="1177"/>
      <point x="458" y="1166"/>
      <point x="484" y="1106" type="curve" smooth="yes"/>
      <point x="574" y="895"/>
      <point x="755" y="392"/>
      <point x="781" y="322" type="curve" smooth="yes"/>
      <point x="800" y="269"/>
      <point x="793" y="232"/>
      <point x="746" y="208" type="curve" smooth="yes"/>
      <point x="726" y="198" type="line" smooth="yes"/>
      <point x="686" y="178"/>
      <point x="652" y="149"/>
      <point x="652" y="108" type="curve" smooth="yes"/>
      <point x="652" y="48"/>
      <point x="695" y="0"/>
      <point x="758" y="0" type="curve" smooth="yes"/>
      <point x="1347" y="0" type="line" smooth="yes"/>
      <point x="1430.0" y="0.0"/>
      <point x="1478" y="42"/>
      <point x="1478" y="100" type="curve" smooth="yes"/>
      <point x="1478.0" y="158.0"/>
      <point x="1442" y="185"/>
      <point x="1372" y="210" type="curve" smooth="yes"/>
      <point x="1336" y="223"/>
      <point x="1302" y="248"/>
      <point x="1275" y="310" type="curve" smooth="yes"/>
      <point x="1179.0" y="534.0"/>
      <point x="1024.0" y="973.0"/>
    </contour>
    <contour>
      <point x="1082" y="655" type="line"/>
      <point x="1272" y="869" type="line" smooth="yes"/>
      <point x="1320" y="923"/>
      <point x="1361" y="956"/>
      <point x="1410" y="956" type="curve" smooth="yes"/>
      <point x="1464.0" y="956.0"/>
      <point x="1496.0" y="946.0"/>
      <point x="1564" y="946" type="curve" smooth="yes"/>
      <point x="1680" y="946"/>
      <point x="1800" y="1044"/>
      <point x="1800" y="1196" type="curve" smooth="yes"/>
      <point x="1800" y="1328"/>
      <point x="1730" y="1431"/>
      <point x="1590" y="1431" type="curve" smooth="yes"/>
      <point x="1478.0" y="1431.0"/>
      <point x="1385" y="1363"/>
      <point x="1277" y="1218" type="curve" smooth="yes"/>
      <point x="950" y="780" type="line"/>
    </contour>
  </outline>
</glyph>
<glyph name="b" format="2">
  <advance width="1214"/>
  <unicode hex="0062"/>
  <outline>
    <contour>
      <point x="679" y="1018" type="line" smooth="yes"/>
      <point x="724" y="1173"/>
      <point x="781" y="1216"/>
      <point x="837" y="1216" type="curve" smooth="yes"/>
      <point x="930" y="1216"/>
      <point x="1059" y="1034"/>
      <point x="1180" y="1034" type="curve" smooth="yes"/>
      <point x="1290" y="1034"/>
      <point x="1374" y="1116"/>
      <point x="1374" y="1218" type="curve" smooth="yes"/>
      <point x="1374" y="1354"/>
      <point x="1279" y="1452"/>
      <point x="1076" y="1452" type="curve" smooth="yes"/>
      <point x="628" y="1452"/>
      <point x="350" y="1270"/>
      <point x="230" y="874" type="curve" smooth="yes"/>
      <point x="76" y="366" type="line" smooth="yes"/>
      <point x="36" y="234"/>
      <point x="14" y="186"/>
      <point x="14" y="134" type="curve" smooth="yes"/>
      <point x="14" y="38"/>
      <point x="64" y="-24"/>
      <point x="124" y="-24" type="curve" smooth="yes"/>
      <point x="186" y="-24"/>
      <point x="218" y="-2"/>
      <point x="282" y="62" type="curve" smooth="yes"/>
      <point x="412" y="190" type="line"/>
      <point x="308" y="266" type="line"/>
      <point x="308" y="56"/>
      <point x="431" y="-26"/>
      <point x="594" y="-26" type="curve" smooth="yes"/>
      <point x="901" y="-26"/>
      <point x="1194" y="254"/>
      <point x="1194" y="654" type="curve" smooth="yes"/>
      <point x="1194" y="880"/>
      <point x="1092" y="968"/>
      <point x="938" y="968" type="curve" smooth="yes"/>
      <point x="742" y="968"/>
      <point x="601" y="840"/>
      <point x="510" y="642" type="curve"/>
      <point x="566" y="630" type="line"/>
    </contour>
    <contour>
      <point x="706" y="712" type="curve" smooth="yes"/>
      <point x="732" y="712"/>
      <point x="762" y="696"/>
      <point x="762" y="628" type="curve" smooth="yes"/>
      <point x="762" y="374"/>
      <point x="628" y="194"/>
      <point x="544" y="194" type="curve" smooth="yes"/>
      <point x="512" y="194"/>
      <point x="496" y="224"/>
      <point x="496" y="264" type="curve" smooth="yes"/>
      <point x="496" y="482"/>
      <point x="620" y="712"/>
    </contour>
  </outline>
</glyph>
<glyph name="n" format="2">
  <advance width="1324"/>
  <unicode hex="006E"/>
  <outline>
    <contour>
      <point x="80.0" y="628.0" type="curve" smooth="yes"/>
      <point x="102.38056946786392" y="608.8166547418309"/>
      <point x="143" y="613"/>
      <point x="167.0" y="633.0" type="curve" smooth="yes"/>
      <point x="184" y="647"/>
      <point x="197.92105263157896" y="650.0"/>
      <point x="214.0" y="650.0" type="curve" smooth="yes"/>
      <point x="231.0" y="650.0"/>
      <point x="242.0" y="634.6666666666666"/>
      <point x="242.0" y="604.0" type="curve" smooth="yes"/>
      <point x="242.0" y="579.0434782608695"/>
      <point x="237.26690377370824" y="554.4421705191301"/>
      <point x="222.0" y="522.0" type="curve" smooth="yes"/>
      <point x="110.0" y="284.0" type="line" smooth="yes"/>
      <point x="84.0" y="230.0"/>
      <point x="76.0" y="180.0"/>
      <point x="76.0" y="122.0" type="curve" smooth="yes"/>
      <point x="76.0" y="9.027027027027032"/>
      <point x="136.0" y="-30.0"/>
      <point x="224.0" y="-30.0" type="curve" smooth="yes"/>
      <point x="430.0" y="-30.0"/>
      <point x="552.0" y="37.55294117647058"/>
      <point x="552.0" y="144.0" type="curve" smooth="yes"/>
      <point x="552.0" y="202.0"/>
      <point x="528.0" y="244.0"/>
      <point x="528.0" y="292.0" type="curve" smooth="yes"/>
      <point x="528.0" y="326.0"/>
      <point x="542.0" y="362.0"/>
      <point x="572.0" y="442.0" type="curve" smooth="yes"/>
      <point x="610.0" y="550.0"/>
      <point x="684.0" y="612.0"/>
      <point x="746.0" y="612.0" type="curve" smooth="yes"/>
      <point x="768.0" y="612.0"/>
      <point x="784.0" y="594.0"/>
      <point x="784.0" y="566.0" type="curve" smooth="yes"/>
      <point x="784.0" y="546.0"/>
      <point x="780.0" y="518.0"/>
      <point x="768.0" y="488.0" type="curve" smooth="yes"/>
      <point x="702.0" y="310.0" type="line" smooth="yes"/>
      <point x="684.0" y="260.0"/>
      <point x="674.0" y="212.0"/>
      <point x="672.0" y="136.0" type="curve" smooth="yes"/>
      <point x="669.9506330392044" y="33.53165196021378"/>
      <point x="750.0" y="-30.0"/>
      <point x="886.0" y="-30.0" type="curve" smooth="yes"/>
      <point x="1066.0" y="-30.0"/>
      <point x="1176.842467295198" y="54.89966962360711"/>
      <point x="1246.0" y="182.0" type="curve" smooth="yes"/>
      <point x="1282.0" y="250.0"/>
      <point x="1279" y="299"/>
      <point x="1252.0" y="322.0" type="curve" smooth="yes"/>
      <point x="1230.0" y="341.0"/>
      <point x="1209.0" y="340.0"/>
      <point x="1184.0" y="326.0" type="curve" smooth="yes"/>
      <point x="1159.46327243404" y="312.6163304185672"/>
      <point x="1150" y="310"/>
      <point x="1134.0" y="310.0" type="curve" smooth="yes"/>
      <point x="1116.1875" y="310.0"/>
      <point x="1104" y="320"/>
      <point x="1104.0" y="340.0" type="curve" smooth="yes"/>
      <point x="1104.0" y="362.0"/>
      <point x="1109" y="381"/>
      <point x="1124.0" y="418.0" type="curve" smooth="yes"/>
      <point x="1200.0" y="602.0" type="line" smooth="yes"/>
      <point x="1232.0" y="682.0"/>
      <point x="1248.0" y="738.0"/>
      <point x="1248.0" y="806.0" type="curve" smooth="yes"/>
      <point x="1248.0" y="901.8441558441558"/>
      <point x="1186.0" y="970.0"/>
      <point x="1070.0" y="970.0" type="curve" smooth="yes"/>
      <point x="866.0" y="970.0"/>
      <point x="664.9995010636451" y="839.966749427681"/>
      <point x="476.0" y="464.0" type="curve"/>
      <point x="524.0" y="452.0" type="line"/>
      <point x="530.0" y="588.0"/>
      <point x="662.0" y="736.0"/>
      <point x="662.0" y="838.0" type="curve" smooth="yes"/>
      <point x="662.0" y="923.9047619047619"/>
      <point x="606.0" y="970.0"/>
      <point x="488.0" y="970.0" type="curve" smooth="yes"/>
      <point x="310.0" y="970.0"/>
      <point x="164.75124353130406" y="893.770954954595"/>
      <point x="84.0" y="766.0" type="curve" smooth="yes"/>
      <point x="46" y="706"/>
      <point x="50.0" y="654.0"/>
    </contour>
  </outline>
</glyph>
<glyph name="p" format="2">
  <advance width="1268"/>
  <unicode hex="0070"/>
  <outline>
    <contour>
      <point x="680" y="804" type="line" smooth="yes"/>
      <point x="705" y="897"/>
      <point x="715" y="997"/>
      <point x="715" y="1048" type="curve" smooth="yes"/>
      <point x="715" y="1102"/>
      <point x="662" y="1143"/>
      <point x="592" y="1143" type="curve" smooth="yes"/>
      <point x="451" y="1143"/>
      <point x="354" y="1057"/>
      <point x="313" y="912" type="curve" smooth="yes"/>
      <point x="9" y="-170" type="line" smooth="yes"/>
      <point x="-1" y="-206"/>
      <point x="-13" y="-236"/>
      <point x="-47" y="-254" type="curve" smooth="yes"/>
      <point x="-132" y="-300"/>
      <point x="-156" y="-347"/>
      <point x="-156" y="-386" type="curve" smooth="yes"/>
      <point x="-156" y="-455"/>
      <point x="-108" y="-487"/>
      <point x="-58" y="-486" type="curve" smooth="yes"/>
      <point x="476" y="-480" type="line" smooth="yes"/>
      <point x="549" y="-479"/>
      <point x="603" y="-434"/>
      <point x="602" y="-366" type="curve" smooth="yes"/>
      <point x="601" y="-330"/>
      <point x="584" y="-290"/>
      <point x="524" y="-273" type="curve" smooth="yes"/>
      <point x="471" y="-258" type="line" smooth="yes"/>
      <point x="420" y="-244"/>
      <point x="410" y="-193"/>
      <point x="422" y="-148" type="curve" smooth="yes"/>
    </contour>
    <contour>
      <point x="103.0" y="524"/>
      <point x="167" y="512"/>
      <point x="254" y="584" type="curve" smooth="yes"/>
      <point x="421" y="723"/>
      <point x="575" y="771"/>
      <point x="685" y="755" type="curve" smooth="yes"/>
      <point x="786" y="740"/>
      <point x="837.926407151444" y="638.5200466398517"/>
      <point x="815" y="489" type="curve" smooth="yes"/>
      <point x="785" y="296"/>
      <point x="706" y="186"/>
      <point x="604" y="188" type="curve" smooth="yes"/>
      <point x="554" y="189"/>
      <point x="517" y="223"/>
      <point x="494" y="277" type="curve"/>
      <point x="354" y="214" type="line"/>
      <point x="370" y="83"/>
      <point x="499" y="-29"/>
      <point x="710" y="-29.0" type="curve" smooth="yes"/>
      <point x="974.0" y="-29.0"/>
      <point x="1176.0" y="143"/>
      <point x="1223" y="499" type="curve" smooth="yes"/>
      <point x="1257" y="753"/>
      <point x="1140" y="953"/>
      <point x="871" y="972" type="curve" smooth="yes"/>
      <point x="580" y="993"/>
      <point x="289" y="915"/>
      <point x="136" y="777" type="curve" smooth="yes"/>
      <point x="62" y="710"/>
      <point x="34" y="639"/>
      <point x="62" y="592" type="curve" smooth="yes"/>
    </contour>
  </outline>
</glyph>
<glyph name="q" format="2">
  <advance width="1196"/>
  <unicode hex="0071"/>
  <outline>
    <contour>
      <point x="666" y="292" type="line"/>
      <point x="512" y="-188" type="line" smooth="yes"/>
      <point x="498" y="-231"/>
      <point x="474" y="-264"/>
      <point x="420" y="-282" type="curve" smooth="yes"/>
      <point x="361" y="-302"/>
      <point x="320" y="-351"/>
      <point x="320" y="-400" type="curve" smooth="yes"/>
      <point x="320" y="-461"/>
      <point x="351" y="-491"/>
      <point x="420" y="-490" type="curve" smooth="yes"/>
      <point x="926" y="-480" type="line" smooth="yes"/>
      <point x="993" y="-479"/>
      <point x="1038" y="-450"/>
      <point x="1038" y="-375" type="curve" smooth="yes"/>
      <point x="1038" y="-348"/>
      <point x="1019" y="-322"/>
      <point x="991" y="-303" type="curve" smooth="yes"/>
      <point x="954" y="-282" type="line" smooth="yes"/>
      <point x="890.5384615384615" y="-246.03846153846155"/>
      <point x="907.8275862068965" y="-188.79310344827587"/>
      <point x="923" y="-130" type="curve" smooth="yes"/>
      <point x="1101" y="572" type="line" smooth="yes"/>
      <point x="1127" y="674"/>
      <point x="1211" y="678"/>
      <point x="1211" y="790" type="curve" smooth="yes"/>
      <point x="1211" y="909"/>
      <point x="1114" y="970"/>
      <point x="906" y="970" type="curve" smooth="yes"/>
      <point x="349" y="970"/>
      <point x="24" y="635"/>
      <point x="24" y="256" type="curve" smooth="yes"/>
      <point x="24" y="64"/>
      <point x="126" y="-30"/>
      <point x="292" y="-30" type="curve" smooth="yes"/>
      <point x="479" y="-30"/>
      <point x="636" y="114"/>
      <point x="725" y="250" type="curve"/>
    </contour>
    <contour>
      <point x="445" y="340" type="curve" smooth="yes"/>
      <point x="445" y="507"/>
      <point x="583" y="729"/>
      <point x="678" y="729" type="curve" smooth="yes"/>
      <point x="705" y="729"/>
      <point x="719" y="697"/>
      <point x="719" y="670" type="curve" smooth="yes"/>
      <point x="719" y="458"/>
      <point x="579" y="245"/>
      <point x="498" y="245" type="curve" smooth="yes"/>
      <point x="466" y="245"/>
      <point x="445" y="275"/>
    </contour>
  </outline>
</glyph>
<glyph name="s" format="2">
  <advance width="1036"/>
  <unicode hex="0073"/>
  <outline>
    <contour>
      <point x="482.0" y="154.0" type="curve" smooth="yes"/>
      <point x="418.0" y="154.0"/>
      <point x="364.0" y="178.0"/>
      <point x="304.0" y="268.0" type="curve" smooth="yes"/>
      <point x="252.0" y="342.0"/>
      <point x="204.0" y="388.0"/>
      <point x="128.0" y="388.0" type="curve" smooth="yes"/>
      <point x="60.0" y="388.0"/>
      <point x="16.0" y="334.0"/>
      <point x="14.0" y="238.0" type="curve" smooth="yes"/>
      <point x="12.0" y="86.0"/>
      <point x="134.0" y="-30.0"/>
      <point x="432.0" y="-30.0" type="curve" smooth="yes"/>
      <point x="744.0" y="-30.0"/>
      <point x="934.0979938805963" y="103.62364839554013"/>
      <point x="926.0" y="300.0" type="curve" smooth="yes"/>
      <point x="922.0" y="424.0"/>
      <point x="868.0" y="492.0"/>
      <point x="680.0" y="590.0" type="curve" smooth="yes"/>
      <point x="554.0" y="656.0"/>
      <point x="520.0" y="700.0"/>
      <point x="516.0" y="738.0" type="curve" smooth="yes"/>
      <point x="516.0" y="776.0"/>
      <point x="540.0" y="792.0"/>
      <point x="582.0" y="792.0" type="curve" smooth="yes"/>
      <point x="654.0" y="792.0"/>
      <point x="708.0" y="742.0"/>
      <point x="766.0" y="660.0" type="curve" smooth="yes"/>
      <point x="822.0" y="576.0"/>
      <point x="862.0" y="550.0"/>
      <point x="920.0" y="550.0" type="curve" smooth="yes"/>
      <point x="990.0" y="550.0"/>
      <point x="1030.0" y="600.0"/>
      <point x="1030.0" y="708.0" type="curve" smooth="yes"/>
      <point x="1030.0" y="868.0"/>
      <point x="908.0" y="970.0"/>
      <point x="654.0" y="970.0" type="curve" smooth="yes"/>
      <point x="308.0" y="970.0"/>
      <point x="126.10101934972745" y="812.70003457557"/>
      <point x="132.0" y="620.0" type="curve" smooth="yes"/>
      <point x="138.0" y="486.0"/>
      <point x="208.0" y="416.0"/>
      <point x="376.0" y="344.0" type="curve" smooth="yes"/>
      <point x="516.0" y="284.0"/>
      <point x="544.0" y="256.0"/>
      <point x="546.0" y="210.0" type="curve" smooth="yes"/>
      <point x="546.0" y="180.0"/>
      <point x="524.0" y="154.0"/>
    </contour>
  </outline>
</glyph>
<glyph name="z" format="2">
  <advance width="1186"/>
  <unicode hex="007A"/>
  <outline>
    <contour>
      <point x="598" y="313" type="curve"/>
      <point x="618" y="374" type="line"/>
      <point x="658" y="374"/>
      <point x="777" y="334"/>
      <point x="836" y="334" type="curve" smooth="yes"/>
      <point x="899" y="334"/>
      <point x="949" y="370"/>
      <point x="988" y="432" type="curve" smooth="yes"/>
      <point x="1007" y="462"/>
      <point x="1033" y="472"/>
      <point x="1060" y="472" type="curve" smooth="yes"/>
      <point x="1092" y="472"/>
      <point x="1112" y="446"/>
      <point x="1112" y="381" type="curve" smooth="yes"/>
      <point x="1112" y="142"/>
      <point x="929" y="-30"/>
      <point x="688" y="-30" type="curve" smooth="yes"/>
      <point x="463" y="-30"/>
      <point x="412" y="104"/>
      <point x="358" y="104" type="curve" smooth="yes"/>
      <point x="296" y="104"/>
      <point x="276" y="-30"/>
      <point x="152" y="-30" type="curve" smooth="yes"/>
      <point x="76" y="-30"/>
      <point x="26" y="20"/>
      <point x="26" y="124" type="curve" smooth="yes"/>
      <point x="26" y="214"/>
      <point x="95" y="321"/>
      <point x="249" y="353" type="curve" smooth="yes"/>
      <point x="391" y="382"/>
      <point x="461" y="429"/>
      <point x="517" y="478" type="curve" smooth="yes"/>
      <point x="604" y="555"/>
      <point x="661" y="600"/>
      <point x="684" y="624" type="curve"/>
      <point x="682" y="553" type="line"/>
      <point x="609" y="553"/>
      <point x="413" y="650"/>
      <point x="326" y="650" type="curve" smooth="yes"/>
      <point x="284" y="650"/>
      <point x="266" y="630"/>
      <point x="266" y="608" type="curve" smooth="yes"/>
      <point x="266" y="592"/>
      <point x="274" y="574"/>
      <point x="300" y="564" type="curve" smooth="yes"/>
      <point x="326" y="554"/>
      <point x="336" y="520"/>
      <point x="336" y="490" type="curve" smooth="yes"/>
      <point x="336" y="444"/>
      <point x="285" y="416"/>
      <point x="234" y="416" type="curve" smooth="yes"/>
      <point x="138" y="416"/>
      <point x="74" y="480"/>
      <point x="74" y="596" type="curve" smooth="yes"/>
      <point x="74" y="785"/>
      <point x="211" y="970"/>
      <point x="454" y="970" type="curve" smooth="yes"/>
      <point x="682" y="970"/>
      <point x="740" y="844"/>
      <point x="820" y="844" type="curve" smooth="yes"/>
      <point x="931.2057698563736" y="844.0"/>
      <point x="924.2889855566792" y="970.0"/>
      <point x="1056" y="970" type="curve" smooth="yes"/>
      <point x="1170" y="970"/>
      <point x="1219" y="903"/>
      <point x="1216" y="800" type="curve" smooth="yes"/>
      <point x="1211" y="678"/>
      <point x="1138" y="615"/>
      <point x="1025" y="598" type="curve" smooth="yes"/>
      <point x="933" y="584"/>
      <point x="891" y="554"/>
      <point x="830" y="504" type="curve" smooth="yes"/>
      <point x="627" y="340"/>
      <point x="599" y="325"/>
    </contour>
  </outline>
</glyph>
<glyph name="dotlessi" format="2">
  <advance width="760"/>
  <unicode hex="0131"/>
  <anchor x="476.0" y="994.0" name="center"/>
  <outline>
    <contour>
      <point x="526" y="326" type="curve" smooth="yes"/>
      <point x="526" y="306"/>
      <point x="538" y="296"/>
      <point x="552" y="296" type="curve" smooth="yes"/>
      <point x="566" y="296"/>
      <point x="576" y="300"/>
      <point x="588" y="306" type="curve" smooth="yes"/>
      <point x="606" y="315"/>
      <point x="617" y="316"/>
      <point x="633" y="316" type="curve" smooth="yes"/>
      <point x="657" y="316"/>
      <point x="677" y="286"/>
      <point x="675" y="246" type="curve" smooth="yes"/>
      <point x="669" y="96"/>
      <point x="503" y="-30"/>
      <point x="252" y="-30" type="curve" smooth="yes"/>
      <point x="134" y="-30"/>
      <point x="62" y="44"/>
      <point x="62" y="140" type="curve" smooth="yes"/>
      <point x="62" y="204"/>
      <point x="82" y="264"/>
      <point x="110" y="322" type="curve" smooth="yes"/>
      <point x="238" y="592" type="line" smooth="yes"/>
      <point x="252" y="620"/>
      <point x="258" y="632"/>
      <point x="258" y="646" type="curve" smooth="yes"/>
      <point x="258" y="656"/>
      <point x="252" y="666"/>
      <point x="240" y="666" type="curve" smooth="yes"/>
      <point x="230" y="666"/>
      <point x="220" y="662"/>
      <point x="211" y="657" type="curve" smooth="yes"/>
      <point x="199" y="651"/>
      <point x="193" y="648"/>
      <point x="176" y="648" type="curve" smooth="yes"/>
      <point x="140" y="648"/>
      <point x="100" y="678"/>
      <point x="100" y="740" type="curve" smooth="yes"/>
      <point x="100" y="843"/>
      <point x="241" y="970"/>
      <point x="494" y="970" type="curve" smooth="yes"/>
      <point x="631" y="970"/>
      <point x="682" y="889"/>
      <point x="682" y="800" type="curve" smooth="yes"/>
      <point x="682" y="738"/>
      <point x="662" y="660"/>
      <point x="628" y="582" type="curve" smooth="yes"/>
      <point x="536" y="368" type="line" smooth="yes"/>
      <point x="531" y="356"/>
      <point x="526" y="340"/>
    </contour>
  </outline>
</glyph>
<glyph name="d.alt" format="2">
  <advance width="1256"/>
  <outline>
    <contour>
      <point x="1259" y="1050" type="line" smooth="yes"/>
      <point x="1285" y="1131"/>
      <point x="1299" y="1206"/>
      <point x="1299" y="1268" type="curve" smooth="yes"/>
      <point x="1299" y="1354"/>
      <point x="1251" y="1432"/>
      <point x="1121" y="1432" type="curve" smooth="yes"/>
      <point x="876" y="1432"/>
      <point x="737" y="1308"/>
      <point x="737" y="1208" type="curve" smooth="yes"/>
      <point x="737" y="1146"/>
      <point x="770" y="1116"/>
      <point x="803" y="1116" type="curve" smooth="yes"/>
      <point x="824" y="1116"/>
      <point x="832" y="1118"/>
      <point x="852" y="1125" type="curve" smooth="yes"/>
      <point x="862" y="1128"/>
      <point x="870" y="1133"/>
      <point x="880" y="1133" type="curve" smooth="yes"/>
      <point x="889" y="1133"/>
      <point x="893" y="1126"/>
      <point x="893" y="1116" type="curve" smooth="yes"/>
      <point x="893" y="1102"/>
      <point x="892" y="1089"/>
      <point x="879" y="1050" type="curve" smooth="yes"/>
      <point x="680" y="445" type="line" smooth="yes"/>
      <point x="635" y="307"/>
      <point x="581" y="246"/>
      <point x="516" y="246" type="curve" smooth="yes"/>
      <point x="471" y="246"/>
      <point x="442" y="292"/>
      <point x="442" y="344" type="curve" smooth="yes"/>
      <point x="442" y="488"/>
      <point x="557" y="728"/>
      <point x="680" y="728" type="curve" smooth="yes"/>
      <point x="722" y="728"/>
      <point x="741" y="701"/>
      <point x="741" y="629" type="curve"/>
      <point x="1082" y="686" type="line"/>
      <point x="1087" y="837"/>
      <point x="1001" y="966"/>
      <point x="857" y="966" type="curve" smooth="yes"/>
      <point x="362" y="966"/>
      <point x="28" y="665"/>
      <point x="28" y="274" type="curve" smooth="yes"/>
      <point x="28" y="78"/>
      <point x="131" y="-30"/>
      <point x="303" y="-30" type="curve" smooth="yes"/>
      <point x="504" y="-30"/>
      <point x="644" y="74"/>
      <point x="746" y="298" type="curve"/>
      <point x="680" y="272" type="line"/>
      <point x="678" y="214"/>
      <point x="680" y="170"/>
      <point x="680" y="102" type="curve" smooth="yes"/>
      <point x="680" y="31"/>
      <point x="750" y="-30"/>
      <point x="840" y="-30" type="curve" smooth="yes"/>
      <point x="1087" y="-30"/>
      <point x="1228" y="110"/>
      <point x="1228" y="213" type="curve" smooth="yes"/>
      <point x="1228" y="267"/>
      <point x="1203" y="299"/>
      <point x="1177" y="299" type="curve" smooth="yes"/>
      <point x="1155" y="299"/>
      <point x="1145" y="293"/>
      <point x="1130" y="286" type="curve" smooth="yes"/>
      <point x="1111" y="277"/>
      <point x="1101" y="274"/>
      <point x="1087" y="274" type="curve" smooth="yes"/>
      <point x="1066" y="274"/>
      <point x="1049" y="298"/>
      <point x="1049" y="331" type="curve" smooth="yes"/>
      <point x="1049" y="381"/>
      <point x="1062" y="424"/>
      <point x="1079" y="480" type="curve" smooth="yes"/>
    </contour>
  </outline>
</glyph>
<glyph name="l.alt" format="2">
  <advance width="734"/>
  <outline>
    <contour>
      <point x="687" y="1050.0" type="line" smooth="yes"/>
      <point x="713" y="1131"/>
      <point x="727" y="1206.0"/>
      <point x="727" y="1268.0" type="curve" smooth="yes"/>
      <point x="727" y="1354.0"/>
      <point x="679" y="1432.0"/>
      <point x="549" y="1432.0" type="curve" smooth="yes"/>
      <point x="304" y="1432.0"/>
      <point x="165" y="1308.0"/>
      <point x="165" y="1208.0" type="curve" smooth="yes"/>
      <point x="165" y="1146.0"/>
      <point x="198" y="1116.0"/>
      <point x="231" y="1116.0" type="curve" smooth="yes"/>
      <point x="252" y="1116.0"/>
      <point x="260" y="1118.0"/>
      <point x="280" y="1125.0" type="curve" smooth="yes"/>
      <point x="290" y="1128.0"/>
      <point x="298" y="1133.0"/>
      <point x="308" y="1133.0" type="curve" smooth="yes"/>
      <point x="317" y="1133.0"/>
      <point x="321" y="1126.0"/>
      <point x="321" y="1116.0" type="curve" smooth="yes"/>
      <point x="321" y="1102.0"/>
      <point x="320" y="1089"/>
      <point x="307" y="1050.0" type="curve" smooth="yes"/>
      <point x="71" y="364" type="line" smooth="yes"/>
      <point x="46" y="291"/>
      <point x="39" y="248"/>
      <point x="39" y="184" type="curve" smooth="yes"/>
      <point x="39" y="56"/>
      <point x="122" y="-30"/>
      <point x="286" y="-30" type="curve" smooth="yes"/>
      <point x="522" y="-30"/>
      <point x="698" y="100"/>
      <point x="698" y="228" type="curve" smooth="yes"/>
      <point x="698" y="274"/>
      <point x="678" y="319"/>
      <point x="638" y="319" type="curve" smooth="yes"/>
      <point x="615" y="319"/>
      <point x="601" y="311"/>
      <point x="576" y="288" type="curve" smooth="yes"/>
      <point x="560" y="273"/>
      <point x="546" y="266"/>
      <point x="516" y="266" type="curve" smooth="yes"/>
      <point x="483" y="266"/>
      <point x="465" y="290"/>
      <point x="465" y="338" type="curve" smooth="yes"/>
      <point x="465" y="371"/>
      <point x="502" y="475"/>
      <point x="548" y="618" type="curve" smooth="yes"/>
    </contour>
  </outline>
</glyph>
<glyph name="w.alt" format="2">
  <advance width="1794"/>
  <outline>
    <contour>
      <point x="212" y="112" type="curve" smooth="yes"/>
      <point x="212" y="238"/>
      <point x="210" y="392"/>
      <point x="212" y="521" type="curve" smooth="yes"/>
      <point x="212" y="550"/>
      <point x="214" y="571"/>
      <point x="206" y="581" type="curve" smooth="yes"/>
      <point x="200" y="588"/>
      <point x="187" y="586"/>
      <point x="180" y="582" type="curve" smooth="yes"/>
      <point x="171" y="577"/>
      <point x="167" y="568"/>
      <point x="158" y="556" type="curve" smooth="yes"/>
      <point x="146" y="539"/>
      <point x="135" y="531"/>
      <point x="118" y="522" type="curve" smooth="yes"/>
      <point x="84" y="504"/>
      <point x="34" y="524"/>
      <point x="12" y="588" type="curve" smooth="yes"/>
      <point x="-22" y="684"/>
      <point x="77" y="851"/>
      <point x="279" y="929" type="curve" smooth="yes"/>
      <point x="432" y="988"/>
      <point x="542" y="940"/>
      <point x="570" y="860" type="curve" smooth="yes"/>
      <point x="594" y="798"/>
      <point x="600" y="720"/>
      <point x="598" y="636" type="curve" smooth="yes"/>
      <point x="598" y="572"/>
      <point x="596" y="450"/>
      <point x="596" y="360" type="curve" smooth="yes"/>
      <point x="596" y="312"/>
      <point x="616" y="288"/>
      <point x="654" y="288" type="curve" smooth="yes"/>
      <point x="704" y="288"/>
      <point x="782" y="394"/>
      <point x="782" y="540" type="curve" smooth="yes"/>
      <point x="782" y="592"/>
      <point x="774" y="608"/>
      <point x="748" y="650" type="curve" smooth="yes"/>
      <point x="726" y="682"/>
      <point x="706" y="712"/>
      <point x="706" y="752" type="curve" smooth="yes"/>
      <point x="706" y="874"/>
      <point x="794" y="968"/>
      <point x="936" y="968" type="curve" smooth="yes"/>
      <point x="1064" y="968"/>
      <point x="1136" y="906"/>
      <point x="1136" y="774" type="curve" smooth="yes"/>
      <point x="1136" y="328"/>
      <point x="724" y="-26"/>
      <point x="346" y="-26" type="curve" smooth="yes"/>
      <point x="264" y="-26"/>
      <point x="212" y="16"/>
    </contour>
    <contour>
      <point x="878" y="112" type="curve" smooth="yes"/>
      <point x="878" y="238"/>
      <point x="876" y="392"/>
      <point x="878" y="521" type="curve" smooth="yes"/>
      <point x="878" y="550"/>
      <point x="880" y="571"/>
      <point x="872" y="581" type="curve" smooth="yes"/>
      <point x="866" y="588"/>
      <point x="853" y="586"/>
      <point x="846" y="582" type="curve" smooth="yes"/>
      <point x="837" y="577"/>
      <point x="833" y="568"/>
      <point x="824" y="556" type="curve" smooth="yes"/>
      <point x="812" y="539"/>
      <point x="801" y="531"/>
      <point x="784" y="522" type="curve" smooth="yes"/>
      <point x="750" y="504"/>
      <point x="700" y="524"/>
      <point x="678" y="588" type="curve" smooth="yes"/>
      <point x="644" y="684"/>
      <point x="743" y="851"/>
      <point x="945" y="929" type="curve" smooth="yes"/>
      <point x="1098" y="988"/>
      <point x="1208" y="940"/>
      <point x="1236" y="860" type="curve" smooth="yes"/>
      <point x="1260" y="798"/>
      <point x="1266" y="720"/>
      <point x="1264" y="636" type="curve" smooth="yes"/>
      <point x="1264" y="572"/>
      <point x="1262" y="450"/>
      <point x="1262" y="360" type="curve" smooth="yes"/>
      <point x="1262" y="312"/>
      <point x="1282" y="288"/>
      <point x="1320" y="288" type="curve" smooth="yes"/>
      <point x="1370" y="288"/>
      <point x="1448" y="394"/>
      <point x="1448" y="540" type="curve" smooth="yes"/>
      <point x="1448" y="592"/>
      <point x="1440" y="608"/>
      <point x="1414" y="650" type="curve" smooth="yes"/>
      <point x="1392" y="682"/>
      <point x="1372" y="712"/>
      <point x="1372" y="752" type="curve" smooth="yes"/>
      <point x="1372" y="874"/>
      <point x="1460" y="968"/>
      <point x="1602" y="968" type="curve" smooth="yes"/>
      <point x="1730" y="968"/>
      <point x="1802" y="906"/>
      <point x="1802" y="774" type="curve" smooth="yes"/>
      <point x="1802" y="328"/>
      <point x="1390" y="-26"/>
      <point x="1012" y="-26" type="curve" smooth="yes"/>
      <point x="930" y="-26"/>
      <point x="878" y="16"/>
    </contour>
  </outline>
</glyph>
